<svg id="visual" viewBox="0 0 1024 1050" width="1024" height="1050" xmlns="http://www.w3.org/2000/svg" xmlns:xlink="http://www.w3.org/1999/xlink" version="1.1"><rect x="0" y="0" width="1024" height="1050" fill="#fff"></rect><defs><linearGradient id="grad1_0" x1="0%" y1="0%" x2="100%" y2="100%"><stop offset="30%" stop-color="#f3f8fd" stop-opacity="1"></stop><stop offset="70%" stop-color="#f3f8fd" stop-opacity="1"></stop></linearGradient></defs><defs><linearGradient id="grad1_1" x1="0%" y1="0%" x2="100%" y2="100%"><stop offset="30%" stop-color="#f3f8fd" stop-opacity="1"></stop><stop offset="70%" stop-color="#f7fafe" stop-opacity="1"></stop></linearGradient></defs><defs><linearGradient id="grad1_2" x1="0%" y1="0%" x2="100%" y2="100%"><stop offset="30%" stop-color="#fbfdfe" stop-opacity="1"></stop><stop offset="70%" stop-color="#f7fafe" stop-opacity="1"></stop></linearGradient></defs><defs><linearGradient id="grad1_3" x1="0%" y1="0%" x2="100%" y2="100%"><stop offset="30%" stop-color="#fbfdfe" stop-opacity="1"></stop><stop offset="70%" stop-color="#ffffff" stop-opacity="1"></stop></linearGradient></defs><defs><linearGradient id="grad2_0" x1="0%" y1="0%" x2="100%" y2="100%"><stop offset="30%" stop-color="#f3f8fd" stop-opacity="1"></stop><stop offset="70%" stop-color="#f3f8fd" stop-opacity="1"></stop></linearGradient></defs><defs><linearGradient id="grad2_1" x1="0%" y1="0%" x2="100%" y2="100%"><stop offset="30%" stop-color="#f7fafe" stop-opacity="1"></stop><stop offset="70%" stop-color="#f3f8fd" stop-opacity="1"></stop></linearGradient></defs><defs><linearGradient id="grad2_2" x1="0%" y1="0%" x2="100%" y2="100%"><stop offset="30%" stop-color="#f7fafe" stop-opacity="1"></stop><stop offset="70%" stop-color="#fbfdfe" stop-opacity="1"></stop></linearGradient></defs><defs><linearGradient id="grad2_3" x1="0%" y1="0%" x2="100%" y2="100%"><stop offset="30%" stop-color="#ffffff" stop-opacity="1"></stop><stop offset="70%" stop-color="#fbfdfe" stop-opacity="1"></stop></linearGradient></defs><g transform="translate(1024, 0)"><path d="M0 660C-94 659 -188.1 658 -252.6 609.8C-317.1 561.5 -352 466 -397.4 397.4C-442.8 328.8 -498.7 287.1 -544.2 225.4C-589.7 163.7 -624.8 81.8 -660 0L0 0Z" fill="#fdfeff"></path><path d="M0 495C-70.5 494.3 -141.1 493.5 -189.4 457.3C-237.8 421.1 -264 349.5 -298 298C-332.1 246.6 -374 215.4 -408.1 169.1C-442.3 122.7 -468.6 61.4 -495 0L0 0Z" fill="#f9fbfe"></path><path d="M0 330C-47 329.5 -94 329 -126.3 304.9C-158.5 280.8 -176 233 -198.7 198.7C-221.4 164.4 -249.3 143.6 -272.1 112.7C-294.8 81.8 -312.4 40.9 -330 0L0 0Z" fill="#f5f9fd"></path><path d="M0 165C-23.5 164.8 -47 164.5 -63.1 152.4C-79.3 140.4 -88 116.5 -99.3 99.3C-110.7 82.2 -124.7 71.8 -136 56.4C-147.4 40.9 -156.2 20.5 -165 0L0 0Z" fill="#f3f8fd"></path></g><g transform="translate(0, 1050)"><path d="M0 -660C62.5 -594.6 125 -529.3 210.1 -507.2C295.2 -485.1 402.8 -506.4 466.7 -466.7C530.6 -427 550.7 -326.3 575.6 -238.4C600.5 -150.5 630.2 -75.2 660 0L0 0Z" fill="#fdfeff"></path><path d="M0 -495C46.9 -446 93.8 -397 157.6 -380.4C221.4 -363.9 302.1 -379.8 350 -350C397.9 -320.2 413 -244.8 431.7 -178.8C450.4 -112.9 472.7 -56.4 495 0L0 0Z" fill="#f9fbfe"></path><path d="M0 -330C31.3 -297.3 62.5 -264.6 105 -253.6C147.6 -242.6 201.4 -253.2 233.3 -233.3C265.3 -213.5 275.3 -163.2 287.8 -119.2C300.2 -75.2 315.1 -37.6 330 0L0 0Z" fill="#f5f9fd"></path><path d="M0 -165C15.6 -148.7 31.3 -132.3 52.5 -126.8C73.8 -121.3 100.7 -126.6 116.7 -116.7C132.6 -106.7 137.7 -81.6 143.9 -59.6C150.1 -37.6 157.6 -18.8 165 0L0 0Z" fill="#f3f8fd"></path></g></svg>