<svg id="visual" viewBox="0 0 900 600" width="900" height="600" xmlns="http://www.w3.org/2000/svg" xmlns:xlink="http://www.w3.org/1999/xlink" version="1.1"><path d="M0 340L16.7 335C33.3 330 66.7 320 100 321.3C133.3 322.7 166.7 335.3 200 328.5C233.3 321.7 266.7 295.3 300 294.8C333.3 294.3 366.7 319.7 400 332.5C433.3 345.3 466.7 345.7 500 346.3C533.3 347 566.7 348 600 338C633.3 328 666.7 307 700 302.8C733.3 298.7 766.7 311.3 800 322.7C833.3 334 866.7 344 883.3 349L900 354L900 0L883.3 0C866.7 0 833.3 0 800 0C766.7 0 733.3 0 700 0C666.7 0 633.3 0 600 0C566.7 0 533.3 0 500 0C466.7 0 433.3 0 400 0C366.7 0 333.3 0 300 0C266.7 0 233.3 0 200 0C166.7 0 133.3 0 100 0C66.7 0 33.3 0 16.7 0L0 0Z" fill="#7a6af8" stroke-linecap="round" stroke-linejoin="miter"></path></svg>