<svg id="visual" viewBox="0 0 1024 400" width="1024" height="400" xmlns="http://www.w3.org/2000/svg" xmlns:xlink="http://www.w3.org/1999/xlink" version="1.1"><path d="M0 226L19 222.7C38 219.3 76 212.7 114 213.7C152 214.7 190 223.3 227.8 218.8C265.7 214.3 303.3 196.7 341.2 196.3C379 196 417 213 455 221.5C493 230 531 230 569 230.3C607 230.7 645 231.3 682.8 224.7C720.7 218 758.3 204 796.2 201.3C834 198.7 872 207.3 910 215C948 222.7 986 229.3 1005 232.7L1024 236L1024 0L1005 0C986 0 948 0 910 0C872 0 834 0 796.2 0C758.3 0 720.7 0 682.8 0C645 0 607 0 569 0C531 0 493 0 455 0C417 0 379 0 341.2 0C303.3 0 265.7 0 227.8 0C190 0 152 0 114 0C76 0 38 0 19 0L0 0Z" fill="#7a6af8" stroke-linecap="round" stroke-linejoin="miter"></path></svg>