<svg id="visual" viewBox="0 0 1024 1000" width="1024" height="1000" xmlns="http://www.w3.org/2000/svg" xmlns:xlink="http://www.w3.org/1999/xlink" version="1.1"><rect x="0" y="0" width="1024" height="1000" fill="#fff"></rect><path d="M0 429L24.3 442.2C48.7 455.3 97.3 481.7 146.2 479.5C195 477.3 244 446.7 292.8 429C341.7 411.3 390.3 406.7 439 430.3C487.7 454 536.3 506 585 532.3C633.7 558.7 682.3 559.3 731.2 535.3C780 511.3 829 462.7 877.8 451C926.7 439.3 975.3 464.7 999.7 477.3L1024 490L1024 1001L999.7 1001C975.3 1001 926.7 1001 877.8 1001C829 1001 780 1001 731.2 1001C682.3 1001 633.7 1001 585 1001C536.3 1001 487.7 1001 439 1001C390.3 1001 341.7 1001 292.8 1001C244 1001 195 1001 146.2 1001C97.3 1001 48.7 1001 24.3 1001L0 1001Z" fill="#6969f0" stroke-linecap="round" stroke-linejoin="miter"></path></svg>