<svg id="visual" viewBox="0 0 900 900" width="900" height="900" xmlns="http://www.w3.org/2000/svg" xmlns:xlink="http://www.w3.org/1999/xlink" version="1.1"><path d="M0 386L21.5 397.8C43 409.7 86 433.3 128.8 431.3C171.7 429.3 214.3 401.7 257.2 385.7C300 369.7 343 365.3 385.8 386.7C428.7 408 471.3 455 514.2 478.8C557 502.7 600 503.3 642.8 481.8C685.7 460.3 728.3 416.7 771.2 406.2C814 395.7 857 418.3 878.5 429.7L900 441L900 901L878.5 901C857 901 814 901 771.2 901C728.3 901 685.7 901 642.8 901C600 901 557 901 514.2 901C471.3 901 428.7 901 385.8 901C343 901 300 901 257.2 901C214.3 901 171.7 901 128.8 901C86 901 43 901 21.5 901L0 901Z" fill="#6969f0" stroke-linecap="round" stroke-linejoin="miter"></path></svg>