<svg id="visual" viewBox="0 0 450 900" width="450" height="900" xmlns="http://www.w3.org/2000/svg" xmlns:xlink="http://www.w3.org/1999/xlink" version="1.1"><path d="M0 386L10.7 397.8C21.3 409.7 42.7 433.3 64.2 431.3C85.7 429.3 107.3 401.7 128.8 385.7C150.3 369.7 171.7 365.3 193 386.7C214.3 408 235.7 455 257 478.8C278.3 502.7 299.7 503.3 321.2 481.8C342.7 460.3 364.3 416.7 385.8 406.2C407.3 395.7 428.7 418.3 439.3 429.7L450 441L450 901L439.3 901C428.7 901 407.3 901 385.8 901C364.3 901 342.7 901 321.2 901C299.7 901 278.3 901 257 901C235.7 901 214.3 901 193 901C171.7 901 150.3 901 128.8 901C107.3 901 85.7 901 64.2 901C42.7 901 21.3 901 10.7 901L0 901Z" fill="#6969f0" stroke-linecap="round" stroke-linejoin="miter"></path></svg>