<svg id="visual" viewBox="0 0 1024 1050" width="1024" height="1050" xmlns="http://www.w3.org/2000/svg" xmlns:xlink="http://www.w3.org/1999/xlink" version="1.1"><rect x="0" y="0" width="1024" height="1050" fill="#e9eef3"></rect><path d="M0 572L24.3 557.5C48.7 543 97.3 514 146.2 498.7C195 483.3 244 481.7 292.8 477.8C341.7 474 390.3 468 439 489.8C487.7 511.7 536.3 561.3 585 572.8C633.7 584.3 682.3 557.7 731.2 528.8C780 500 829 469 877.8 479C926.7 489 975.3 540 999.7 565.5L1024 591L1024 1051L999.7 1051C975.3 1051 926.7 1051 877.8 1051C829 1051 780 1051 731.2 1051C682.3 1051 633.7 1051 585 1051C536.3 1051 487.7 1051 439 1051C390.3 1051 341.7 1051 292.8 1051C244 1051 195 1051 146.2 1051C97.3 1051 48.7 1051 24.3 1051L0 1051Z" fill="#d2dfec"></path><path d="M0 718L24.3 699.7C48.7 681.3 97.3 644.7 146.2 625.8C195 607 244 606 292.8 602.7C341.7 599.3 390.3 593.7 439 596.5C487.7 599.3 536.3 610.7 585 606.5C633.7 602.3 682.3 582.7 731.2 601.2C780 619.7 829 676.3 877.8 697.2C926.7 718 975.3 703 999.7 695.5L1024 688L1024 1051L999.7 1051C975.3 1051 926.7 1051 877.8 1051C829 1051 780 1051 731.2 1051C682.3 1051 633.7 1051 585 1051C536.3 1051 487.7 1051 439 1051C390.3 1051 341.7 1051 292.8 1051C244 1051 195 1051 146.2 1051C97.3 1051 48.7 1051 24.3 1051L0 1051Z" fill="#dbe5f0"></path><path d="M0 742L24.3 739.7C48.7 737.3 97.3 732.7 146.2 737.8C195 743 244 758 292.8 750.7C341.7 743.3 390.3 713.7 439 694.8C487.7 676 536.3 668 585 656.8C633.7 645.7 682.3 631.3 731.2 635.7C780 640 829 663 877.8 678.7C926.7 694.3 975.3 702.7 999.7 706.8L1024 711L1024 1051L999.7 1051C975.3 1051 926.7 1051 877.8 1051C829 1051 780 1051 731.2 1051C682.3 1051 633.7 1051 585 1051C536.3 1051 487.7 1051 439 1051C390.3 1051 341.7 1051 292.8 1051C244 1051 195 1051 146.2 1051C97.3 1051 48.7 1051 24.3 1051L0 1051Z" fill="#e3ecf3"></path><path d="M0 852L24.3 839C48.7 826 97.3 800 146.2 781.8C195 763.7 244 753.3 292.8 757.5C341.7 761.7 390.3 780.3 439 782.7C487.7 785 536.3 771 585 772.2C633.7 773.3 682.3 789.7 731.2 781.7C780 773.7 829 741.3 877.8 726.7C926.7 712 975.3 715 999.7 716.5L1024 718L1024 1051L999.7 1051C975.3 1051 926.7 1051 877.8 1051C829 1051 780 1051 731.2 1051C682.3 1051 633.7 1051 585 1051C536.3 1051 487.7 1051 439 1051C390.3 1051 341.7 1051 292.8 1051C244 1051 195 1051 146.2 1051C97.3 1051 48.7 1051 24.3 1051L0 1051Z" fill="#edf2f7"></path><path d="M0 915L24.3 915.7C48.7 916.3 97.3 917.7 146.2 912.7C195 907.7 244 896.3 292.8 896.2C341.7 896 390.3 907 439 914.2C487.7 921.3 536.3 924.7 585 910.5C633.7 896.3 682.3 864.7 731.2 863.8C780 863 829 893 877.8 907.2C926.7 921.3 975.3 919.7 999.7 918.8L1024 918L1024 1051L999.7 1051C975.3 1051 926.7 1051 877.8 1051C829 1051 780 1051 731.2 1051C682.3 1051 633.7 1051 585 1051C536.3 1051 487.7 1051 439 1051C390.3 1051 341.7 1051 292.8 1051C244 1051 195 1051 146.2 1051C97.3 1051 48.7 1051 24.3 1051L0 1051Z" fill="#f6f9fb"></path><path d="M0 905L24.3 907.3C48.7 909.7 97.3 914.3 146.2 915.2C195 916 244 913 292.8 915.3C341.7 917.7 390.3 925.3 439 930C487.7 934.7 536.3 936.3 585 942.5C633.7 948.7 682.3 959.3 731.2 956.2C780 953 829 936 877.8 934.8C926.7 933.7 975.3 948.3 999.7 955.7L1024 963L1024 1051L999.7 1051C975.3 1051 926.7 1051 877.8 1051C829 1051 780 1051 731.2 1051C682.3 1051 633.7 1051 585 1051C536.3 1051 487.7 1051 439 1051C390.3 1051 341.7 1051 292.8 1051C244 1051 195 1051 146.2 1051C97.3 1051 48.7 1051 24.3 1051L0 1051Z" fill="#ffffff"></path></svg>