<svg id="visual" viewBox="0 0 1824 400" width="1824" height="400" xmlns="http://www.w3.org/2000/svg" xmlns:xlink="http://www.w3.org/1999/xlink" version="1.1"><path d="M0 176L33.8 192C67.7 208 135.3 240 202.8 243C270.3 246 337.7 220 405.2 211.7C472.7 203.3 540.3 212.7 608 202C675.7 191.3 743.3 160.7 810.8 158.5C878.3 156.3 945.7 182.7 1013.2 191.7C1080.7 200.7 1148.3 192.3 1216 188.5C1283.7 184.7 1351.3 185.3 1418.8 192.7C1486.3 200 1553.7 214 1621.2 211.8C1688.7 209.7 1756.3 191.3 1790.2 182.2L1824 173" fill="none" stroke-linecap="round" stroke-linejoin="miter" stroke="#190061" stroke-width="40"></path></svg>