<svg id="visual" viewBox="0 0 1024 600" width="1024" height="600" xmlns="http://www.w3.org/2000/svg" xmlns:xlink="http://www.w3.org/1999/xlink" version="1.1"><path d="M0 340L19 335C38 330 76 320 114 321.3C152 322.7 190 335.3 227.8 328.5C265.7 321.7 303.3 295.3 341.2 294.8C379 294.3 417 319.7 455 332.5C493 345.3 531 345.7 569 346.3C607 347 645 348 682.8 338C720.7 328 758.3 307 796.2 302.8C834 298.7 872 311.3 910 322.7C948 334 986 344 1005 349L1024 354" fill="none" stroke-linecap="round" stroke-linejoin="miter" stroke="#7a6af8" stroke-width="40"></path></svg>