<svg id="visual" viewBox="0 0 1024 1050" width="1024" height="1050" xmlns="http://www.w3.org/2000/svg" xmlns:xlink="http://www.w3.org/1999/xlink" version="1.1"><path d="M0 243L14.2 236C28.3 229 56.7 215 85.2 199.2C113.7 183.3 142.3 165.7 170.8 167.3C199.3 169 227.7 190 256 198.8C284.3 207.7 312.7 204.3 341.2 199.2C369.7 194 398.3 187 426.8 180C455.3 173 483.7 166 512 174.7C540.3 183.3 568.7 207.7 597.2 202.3C625.7 197 654.3 162 682.8 142.8C711.3 123.7 739.7 120.3 768 134.3C796.3 148.3 824.7 179.7 853.2 184.8C881.7 190 910.3 169 938.8 151.5C967.3 134 995.7 120 1009.8 113L1024 106L1024 0L1009.8 0C995.7 0 967.3 0 938.8 0C910.3 0 881.7 0 853.2 0C824.7 0 796.3 0 768 0C739.7 0 711.3 0 682.8 0C654.3 0 625.7 0 597.2 0C568.7 0 540.3 0 512 0C483.7 0 455.3 0 426.8 0C398.3 0 369.7 0 341.2 0C312.7 0 284.3 0 256 0C227.7 0 199.3 0 170.8 0C142.3 0 113.7 0 85.2 0C56.7 0 28.3 0 14.2 0L0 0Z" fill="#9db1ee"></path><path d="M0 547L14.2 543.5C28.3 540 56.7 533 85.2 527.8C113.7 522.7 142.3 519.3 170.8 531.7C199.3 544 227.7 572 256 558C284.3 544 312.7 488 341.2 461.7C369.7 435.3 398.3 438.7 426.8 440.3C455.3 442 483.7 442 512 470C540.3 498 568.7 554 597.2 557.5C625.7 561 654.3 512 682.8 468.3C711.3 424.7 739.7 386.3 768 391.7C796.3 397 824.7 446 853.2 468.7C881.7 491.3 910.3 487.7 938.8 454.3C967.3 421 995.7 358 1009.8 326.5L1024 295L1024 104L1009.8 111C995.7 118 967.3 132 938.8 149.5C910.3 167 881.7 188 853.2 182.8C824.7 177.7 796.3 146.3 768 132.3C739.7 118.3 711.3 121.7 682.8 140.8C654.3 160 625.7 195 597.2 200.3C568.7 205.7 540.3 181.3 512 172.7C483.7 164 455.3 171 426.8 178C398.3 185 369.7 192 341.2 197.2C312.7 202.3 284.3 205.7 256 196.8C227.7 188 199.3 167 170.8 165.3C142.3 163.7 113.7 181.3 85.2 197.2C56.7 213 28.3 227 14.2 234L0 241Z" fill="#a4bdef"></path><path d="M0 663L14.2 666.5C28.3 670 56.7 677 85.2 673.5C113.7 670 142.3 656 170.8 663C199.3 670 227.7 698 256 691C284.3 684 312.7 642 341.2 619.2C369.7 596.3 398.3 592.7 426.8 578.7C455.3 564.7 483.7 540.3 512 566.7C540.3 593 568.7 670 597.2 678.7C625.7 687.3 654.3 627.7 682.8 575.2C711.3 522.7 739.7 477.3 768 480.8C796.3 484.3 824.7 536.7 853.2 561.2C881.7 585.7 910.3 582.3 938.8 559.7C967.3 537 995.7 495 1009.8 474L1024 453L1024 293L1009.8 324.5C995.7 356 967.3 419 938.8 452.3C910.3 485.7 881.7 489.3 853.2 466.7C824.7 444 796.3 395 768 389.7C739.7 384.3 711.3 422.7 682.8 466.3C654.3 510 625.7 559 597.2 555.5C568.7 552 540.3 496 512 468C483.7 440 455.3 440 426.8 438.3C398.3 436.7 369.7 433.3 341.2 459.7C312.7 486 284.3 542 256 556C227.7 570 199.3 542 170.8 529.7C142.3 517.3 113.7 520.7 85.2 525.8C56.7 531 28.3 538 14.2 541.5L0 545Z" fill="#aec8ef"></path><path d="M0 789L14.2 789C28.3 789 56.7 789 85.2 790.7C113.7 792.3 142.3 795.7 170.8 806.2C199.3 816.7 227.7 834.3 256 830.8C284.3 827.3 312.7 802.7 341.2 790.3C369.7 778 398.3 778 426.8 762.3C455.3 746.7 483.7 715.3 512 731.2C540.3 747 568.7 810 597.2 808.2C625.7 806.3 654.3 739.7 682.8 692.3C711.3 645 739.7 617 768 631C796.3 645 824.7 701 853.2 729C881.7 757 910.3 757 938.8 729C967.3 701 995.7 645 1009.8 617L1024 589L1024 451L1009.8 472C995.7 493 967.3 535 938.8 557.7C910.3 580.3 881.7 583.7 853.2 559.2C824.7 534.7 796.3 482.3 768 478.8C739.7 475.3 711.3 520.7 682.8 573.2C654.3 625.7 625.7 685.3 597.2 676.7C568.7 668 540.3 591 512 564.7C483.7 538.3 455.3 562.7 426.8 576.7C398.3 590.7 369.7 594.3 341.2 617.2C312.7 640 284.3 682 256 689C227.7 696 199.3 668 170.8 661C142.3 654 113.7 668 85.2 671.5C56.7 675 28.3 668 14.2 664.5L0 661Z" fill="#bbd2ef"></path><path d="M0 1051L14.2 1051C28.3 1051 56.7 1051 85.2 1051C113.7 1051 142.3 1051 170.8 1051C199.3 1051 227.7 1051 256 1051C284.3 1051 312.7 1051 341.2 1051C369.7 1051 398.3 1051 426.8 1051C455.3 1051 483.7 1051 512 1051C540.3 1051 568.7 1051 597.2 1051C625.7 1051 654.3 1051 682.8 1051C711.3 1051 739.7 1051 768 1051C796.3 1051 824.7 1051 853.2 1051C881.7 1051 910.3 1051 938.8 1051C967.3 1051 995.7 1051 1009.8 1051L1024 1051L1024 587L1009.8 615C995.7 643 967.3 699 938.8 727C910.3 755 881.7 755 853.2 727C824.7 699 796.3 643 768 629C739.7 615 711.3 643 682.8 690.3C654.3 737.7 625.7 804.3 597.2 806.2C568.7 808 540.3 745 512 729.2C483.7 713.3 455.3 744.7 426.8 760.3C398.3 776 369.7 776 341.2 788.3C312.7 800.7 284.3 825.3 256 828.8C227.7 832.3 199.3 814.7 170.8 804.2C142.3 793.7 113.7 790.3 85.2 788.7C56.7 787 28.3 787 14.2 787L0 787Z" fill="#cadcee"></path></svg>