<svg id="visual" viewBox="0 0 900 600" width="900" height="600" xmlns="http://www.w3.org/2000/svg" xmlns:xlink="http://www.w3.org/1999/xlink" version="1.1"><rect x="0" y="0" width="900" height="600" fill="#fff"></rect><path d="M0 350L30 359.3C60 368.7 120 387.3 180 370C240 352.7 300 299.3 360 278.8C420 258.3 480 270.7 540 292.7C600 314.7 660 346.3 720 366.8C780 387.3 840 396.7 870 401.3L900 406L900 601L870 601C840 601 780 601 720 601C660 601 600 601 540 601C480 601 420 601 360 601C300 601 240 601 180 601C120 601 60 601 30 601L0 601Z" fill="#5a5aec" stroke-linecap="round" stroke-linejoin="miter"></path></svg>