<svg id="visual" viewBox="0 0 900 450" width="900" height="450" xmlns="http://www.w3.org/2000/svg" xmlns:xlink="http://www.w3.org/1999/xlink" version="1.1"><rect x="0" y="0" width="900" height="450" fill="#cadcee"></rect><path d="M0 82L25 80.7C50 79.3 100 76.7 150 72.8C200 69 250 64 300 72.3C350 80.7 400 102.3 450 115.2C500 128 550 132 600 130.2C650 128.3 700 120.7 750 114.7C800 108.7 850 104.3 875 102.2L900 100L900 0L875 0C850 0 800 0 750 0C700 0 650 0 600 0C550 0 500 0 450 0C400 0 350 0 300 0C250 0 200 0 150 0C100 0 50 0 25 0L0 0Z" fill="#fff" stroke-linecap="round" stroke-linejoin="miter"></path></svg>